<?xml version="1.0" encoding="iso-8859-1"?>
<!-- Uploaded to: SVG Repo, www.svgrepo.com, Generator: SVG Repo Mixer Tools -->
<svg height="800px" width="800px" version="1.1" id="Layer_1" xmlns="http://www.w3.org/2000/svg" xmlns:xlink="http://www.w3.org/1999/xlink" 
	 viewBox="0 0 512 512" xml:space="preserve">
<path style="fill:#2D527C;" d="M256.001,512c-56.352,0-102.197-45.846-102.197-102.197c0-79.024,93.375-143.763,97.348-146.48
	c6.557-4.479,15.505-2.798,19.987,3.756c4.482,6.557,2.8,15.505-3.756,19.987c-0.838,0.574-84.818,58.922-84.818,122.736
	c0,40.492,32.944,73.436,73.436,73.436s73.436-32.944,73.436-73.436c0-21.166-8.939-43.872-26.568-67.486
	c-4.751-6.365-3.444-15.374,2.921-20.125c6.363-4.754,15.374-3.446,20.127,2.919c21.421,28.692,32.283,57.188,32.283,84.692
	C358.198,466.154,312.352,512,256.001,512z"/>
<path style="fill:#CEE8FA;" d="M190.505,14.38c39.102,0,56.644,21.916,63.547,34.789c0.867,1.616,3.22,1.615,4.084-0.003
	c6.878-12.875,24.324-34.786,63.423-34.786c44.539,0,83.718,30.404,83.718,85.923c0,22.466-4.579,41.713-17.285,63.192
	c-25.895,43.772-111.202,100.517-128.726,111.698c-1.937,1.237-4.39,1.24-6.332,0.009c-17.537-11.128-102.86-67.592-128.959-111.707
	c-12.706-21.479-17.254-40.725-17.254-63.192C106.722,44.783,145.966,14.38,190.505,14.38z"/>
<path style="fill:#2D527C;" d="M256.096,290.504c-3.851,0-7.609-1.093-10.866-3.159c-10.601-6.727-104.419-67.146-133.631-116.526
	c-13.318-22.514-19.257-44.26-19.257-70.516c0-30.196,10.266-55.865,29.69-74.23C139.815,9.26,164.132,0,190.505,0
	c33.515,0,53.934,14.275,65.574,27.271C267.695,14.275,288.079,0,321.559,0c26.371,0,50.679,9.261,68.446,26.079
	c19.398,18.362,29.652,44.027,29.652,74.224c0,26.217-5.949,47.964-19.29,70.514c-28.995,49.014-122.768,109.737-133.365,116.5
	C263.732,289.402,259.961,290.504,256.096,290.504z M190.505,28.761c-34.545,0-69.401,22.121-69.401,71.542
	c0,21.093,4.56,37.802,15.249,55.871c20.102,33.979,82.627,79.948,119.73,103.966c37.093-24.14,99.581-70.241,119.531-103.966
	c10.712-18.106,15.282-34.815,15.282-55.871c0-49.421-34.825-71.542-69.338-71.542c-29.933,0-44.115,14.782-50.74,27.182
	c-2.909,5.44-8.551,8.818-14.727,8.818c-6.168,0-11.806-3.372-14.715-8.798C234.724,43.554,220.496,28.761,190.505,28.761z"/>
</svg>