<?xml version="1.0" ?>
<!-- Uploaded to: SVG Repo, www.svgrepo.com, Generator: SVG Repo Mixer Tools -->
<svg width="800px" height="800px" viewBox="0 0 32 32" xmlns="http://www.w3.org/2000/svg">
<defs>
<style>.cls-1{fill:none;stroke:#dd2853;stroke-miterlimit:10;stroke-width:2px;}.cls-2{fill:#e291a8;}.cls-3{fill:#dd2853;}</style>
</defs>
<title/>
<g data-name="Layer 6" id="Layer_6">
<path class="cls-1" d="M17.17,2H14.83A3.84,3.84,0,0,0,11,5.83V7a1,1,0,0,0,1,1h8a1,1,0,0,0,1-1V5.83A3.84,3.84,0,0,0,17.17,2Z"/>
<path class="cls-2" d="M26,11V24a2,2,0,0,1-2,2H8a2,2,0,0,1-2-2V11a5,5,0,0,1,5-5H21A5,5,0,0,1,26,11Z"/>
<path class="cls-3" d="M26,15v2H18.36a3.28,3.28,0,0,1-4.72,0H6V15h6.69c0-.11,0-.22,0-.33,0-1.49,1.92-4.38,2.51-5.24a1,1,0,0,1,1.64,0c.59.86,2.51,3.75,2.51,5.24,0,.11,0,.22,0,.33H26Z"/>
<path class="cls-3" d="M16,23a1,1,0,0,0-1,1v3a1,1,0,0,0,2,0V24A1,1,0,0,0,16,23Z"/>
</g>
</svg>